<svg width="120" height="120" viewBox="0 0 120 120" xmlns="http://www.w3.org/2000/svg">
  <!-- Background Circle -->
  <circle cx="60" cy="60" r="58" fill="#1a237e" stroke="#00bcd4" stroke-width="2"/>
  
  <!-- Outer Ring -->
  <circle cx="60" cy="60" r="45" fill="none" stroke="#00bcd4" stroke-width="1"/>
  <circle cx="60" cy="60" r="35" fill="none" stroke="#00bcd4" stroke-width="0.5"/>
  
  <!-- Central emblem -->
  <circle cx="60" cy="60" r="15" fill="#00bcd4"/>
  <circle cx="60" cy="60" r="10" fill="#1a237e"/>
  
  <!-- Irrigation channels (spokes) -->
  <g stroke="#00bcd4" stroke-width="1.5" opacity="0.8">
    <line x1="60" y1="15" x2="60" y2="35" />
    <line x1="60" y1="85" x2="60" y2="105" />
    <line x1="15" y1="60" x2="35" y2="60" />
    <line x1="85" y1="60" x2="105" y2="60" />
    <line x1="81.82" y1="81.82" x2="95.46" y2="95.46" />
    <line x1="24.54" y1="24.54" x2="38.18" y2="38.18" />
    <line x1="81.82" y1="38.18" x2="95.46" y2="24.54" />
    <line x1="24.54" y1="95.46" x2="38.18" y2="81.82" />
  </g>
  
  <!-- Water waves -->
  <path d="M 20 90 Q 35 85 50 90 T 80 90 Q 95 85 110 90" fill="none" stroke="#00bcd4" stroke-width="2" opacity="0.6"/>
  <path d="M 15 95 Q 30 90 45 95 T 75 95 Q 90 90 105 95" fill="none" stroke="#00bcd4" stroke-width="1.5" opacity="0.4"/>
  
  <!-- Text elements -->
  <text x="60" y="25" text-anchor="middle" fill="#00bcd4" font-family="Arial, sans-serif" font-size="8" font-weight="bold">UPID</text>
  <text x="60" y="110" text-anchor="middle" fill="#00bcd4" font-family="Arial, sans-serif" font-size="6">Irrigation Dept.</text>
</svg>
